<mxfile host="app.diagrams.net" modified="2023-05-02T23:43:03.536Z" agent="Mozilla/5.0 (Windows NT 10.0; Win64; x64) AppleWebKit/537.36 (KHTML, like Gecko) Chrome/112.0.0.0 Safari/537.36" version="21.1.9" etag="feazRtv0-2a1vkz4zyUr" type="github">
  <diagram name="PÃ¡gina-1" id="YqXo10swq9uXjxRV9vvg">
    <mxGraphModel>
      <root>
        <mxCell id="0" />
        <mxCell id="1" parent="0" />
      </root>
    </mxGraphModel>
  </diagram>
</mxfile>
